<svg width="163" height="50" viewBox="0 0 163 50" fill="none" xmlns="http://www.w3.org/2000/svg">
<path d="M25.0002 15.3143V7.65842C25.0002 6.81284 24.3007 6.12726 23.4377 6.12726H21.8752V1.53375C21.8752 0.68816 21.1757 0.0025787 20.3127 0.0025787C18.1006 0.0025787 14.7129 -0.163553 10.7362 2.1711C8.26411 1.45001 6.51577 1.53375 4.68774 1.53375C3.82476 1.53375 3.12524 2.21933 3.12524 3.06492V6.12726H1.56274C0.699756 6.12726 0.000244141 6.81284 0.000244141 7.65842V15.3143C0.000244141 21.5501 4.78003 26.7123 10.9377 27.4681V47.4688C10.9377 48.3144 11.6373 49 12.5002 49C13.3632 49 14.0627 48.3144 14.0627 47.4688V42.1097H16.4065C21.1451 42.1097 25.0002 38.3319 25.0002 33.6883V31.3915C25.0002 30.546 24.3007 29.8604 23.4377 29.8604H19.5315C17.4558 29.8604 15.5497 30.5853 14.0627 31.7903V27.4674C20.2113 26.7212 25.0002 21.5847 25.0002 15.3143ZM21.8752 15.3143C21.8752 18.0393 20.6455 20.5004 18.7018 22.1879C18.7325 21.9422 18.7502 21.6926 18.7502 21.4389C18.7502 17.5614 17.2709 14.0165 14.8374 11.3159C16.9005 9.93633 19.3467 9.18959 21.8752 9.18959V15.3143ZM18.7502 3.06492V6.43617C18.4615 6.49378 18.1748 6.55952 17.8904 6.63292C16.8767 5.52101 15.7207 4.57369 14.4584 3.8082C15.8228 3.31938 17.2711 3.06492 18.7502 3.06492ZM6.25024 4.59609C9.35444 4.59609 12.369 5.70685 14.7134 7.82915C13.9397 8.22046 13.1978 8.67665 12.4957 9.1939C10.679 7.85547 8.5562 6.89562 6.25024 6.43512V4.59609ZM3.12524 15.3143V9.18959C10.0177 9.18959 15.6252 14.6846 15.6252 21.4389C15.6252 23.15 14.1833 24.5443 12.4181 24.4998C6.92886 24.367 3.12524 20.0933 3.12524 15.3143ZM19.5315 32.9227H21.8752V33.6883C21.8752 36.6433 19.422 39.0474 16.4065 39.0474H14.0627V38.2818C14.0627 35.3268 16.5161 32.9227 19.5315 32.9227Z" fill="white"/>
<path d="M48.0219 26.8411V30H38.943V26.8411H48.0219ZM40.4055 12.9655V30H36.299V12.9655H40.4055ZM46.8519 19.7278V22.7814H38.943V19.7278H46.8519ZM48.057 12.9655V16.1361H38.943V12.9655H48.057Z" fill="white"/>
<path d="M53.5902 12.9655L56.3747 18.6281L59.1592 12.9655H63.839L59.089 21.4125L63.9677 30H59.2411L56.3747 24.2321L53.5083 30H48.77L53.6604 21.4125L48.8987 12.9655H53.5902Z" fill="white"/>
<path d="M72.4375 24.2204H68.2023V21.0499H72.4375C73.0147 21.0499 73.4827 20.9524 73.8414 20.7574C74.2002 20.5624 74.4615 20.2933 74.6253 19.9501C74.7969 19.5991 74.8827 19.2052 74.8827 18.7685C74.8827 18.3005 74.7969 17.8676 74.6253 17.4698C74.4615 17.072 74.2002 16.7522 73.8414 16.5105C73.4827 16.2609 73.0147 16.1361 72.4375 16.1361H69.7466V30H65.6401V12.9655H72.4375C73.8024 12.9655 74.9763 13.2151 75.9591 13.7143C76.9496 14.2134 77.7101 14.8998 78.2405 15.7734C78.7708 16.6391 79.036 17.6297 79.036 18.7451C79.036 19.8448 78.7708 20.8042 78.2405 21.6231C77.7101 22.4421 76.9496 23.0817 75.9591 23.5419C74.9763 23.9942 73.8024 24.2204 72.4375 24.2204Z" fill="white"/>
<path d="M92.8174 26.8411V30H84.2066V26.8411H92.8174ZM85.669 12.9655V30H81.5625V12.9655H85.669Z" fill="white"/>
<path d="M108.529 21.1435V21.8337C108.529 23.1363 108.346 24.3062 107.979 25.3436C107.621 26.3731 107.11 27.2545 106.447 27.9877C105.784 28.713 105 29.2707 104.095 29.6607C103.19 30.0429 102.192 30.234 101.1 30.234C100 30.234 98.9942 30.0429 98.0816 29.6607C97.1768 29.2707 96.3891 28.713 95.7183 27.9877C95.0553 27.2545 94.5405 26.3731 94.174 25.3436C93.8152 24.3062 93.6358 23.1363 93.6358 21.8337V21.1435C93.6358 19.8409 93.8152 18.671 94.174 17.6336C94.5405 16.5962 95.0514 15.7149 95.7066 14.9895C96.3696 14.2563 97.1534 13.6987 98.0582 13.3165C98.9708 12.9265 99.9769 12.7315 101.077 12.7315C102.169 12.7315 103.167 12.9265 104.072 13.3165C104.984 13.6987 105.772 14.2563 106.435 14.9895C107.098 15.7149 107.613 16.5962 107.979 17.6336C108.346 18.671 108.529 19.8409 108.529 21.1435ZM104.364 21.8337V21.1201C104.364 20.2777 104.29 19.5367 104.142 18.8972C104.002 18.2498 103.791 17.7077 103.51 17.2709C103.229 16.8341 102.882 16.5066 102.469 16.2882C102.063 16.062 101.599 15.9489 101.077 15.9489C100.531 15.9489 100.055 16.062 99.6493 16.2882C99.2437 16.5066 98.9045 16.8341 98.6315 17.2709C98.3585 17.7077 98.1518 18.2498 98.0114 18.8972C97.8788 19.5367 97.8125 20.2777 97.8125 21.1201V21.8337C97.8125 22.6683 97.8788 23.4093 98.0114 24.0566C98.1518 24.6962 98.3585 25.2383 98.6315 25.6829C98.9123 26.1274 99.2554 26.4628 99.661 26.689C100.074 26.9152 100.554 27.0283 101.1 27.0283C101.623 27.0283 102.087 26.9152 102.492 26.689C102.898 26.4628 103.237 26.1274 103.51 25.6829C103.791 25.2383 104.002 24.6962 104.142 24.0566C104.29 23.4093 104.364 22.6683 104.364 21.8337Z" fill="white"/>
<path d="M110.974 12.9655H117.678C118.988 12.9655 120.127 13.1605 121.094 13.5505C122.061 13.9405 122.806 14.5176 123.329 15.282C123.859 16.0464 124.124 16.9901 124.124 18.1133C124.124 19.0882 123.972 19.9033 123.668 20.5585C123.364 21.2137 122.939 21.7557 122.393 22.1847C121.854 22.6059 121.226 22.953 120.509 23.226L119.163 23.9864H113.536L113.513 20.8159H117.678C118.2 20.8159 118.633 20.7223 118.976 20.5351C119.319 20.3479 119.577 20.0827 119.748 19.7395C119.928 19.3885 120.018 18.9712 120.018 18.4877C120.018 17.9963 119.928 17.5751 119.748 17.2241C119.569 16.8731 119.304 16.604 118.953 16.4169C118.61 16.2297 118.185 16.1361 117.678 16.1361H115.08V30H110.974V12.9655ZM120.298 30L116.531 22.4655L120.883 22.4421L124.697 29.8245V30H120.298Z" fill="white"/>
<path d="M138.643 26.8411V30H129.564V26.8411H138.643ZM131.026 12.9655V30H126.92V12.9655H131.026ZM137.473 19.7278V22.7814H129.564V19.7278H137.473ZM138.678 12.9655V16.1361H129.564V12.9655H138.678Z" fill="white"/>
<path d="M40.6629 31.9655V49H36.568V31.9655H40.6629Z" fill="white"/>
<path d="M58.0945 31.9655V49H53.9997L47.9744 38.4002V49H43.8679V31.9655H47.9744L53.9997 42.5653V31.9655H58.0945Z" fill="white"/>
<path d="M66.5409 49H62.762L62.7854 45.8411H66.5409C67.3209 45.8411 67.98 45.6539 68.5182 45.2795C69.0641 44.9052 69.4775 44.3475 69.7583 43.6065C70.0469 42.8577 70.1912 41.9374 70.1912 40.8454V40.1084C70.1912 39.2894 70.1093 38.5718 69.9455 37.9557C69.7895 37.3317 69.5555 36.813 69.2435 36.3996C68.9315 35.9784 68.5416 35.6625 68.0736 35.452C67.6134 35.2414 67.083 35.1361 66.4824 35.1361H62.6918V31.9655H66.4824C67.6368 31.9655 68.6937 32.1644 69.653 32.5622C70.6202 32.9522 71.4547 33.5137 72.1567 34.2469C72.8665 34.9723 73.4125 35.8341 73.7946 36.8325C74.1846 37.8231 74.3796 38.9228 74.3796 40.1318V40.8454C74.3796 42.0466 74.1846 43.1463 73.7946 44.1447C73.4125 45.143 72.8704 46.0049 72.1684 46.7303C71.4664 47.4557 70.6358 48.0172 69.6764 48.415C68.7249 48.805 67.6797 49 66.5409 49ZM65.1136 31.9655V49H61.0071V31.9655H65.1136Z" fill="white"/>
<path d="M91.2497 40.1435V40.8337C91.2497 42.1363 91.0664 43.3062 90.6998 44.3436C90.341 45.3731 89.8301 46.2545 89.1672 46.9877C88.5042 47.713 87.7203 48.2707 86.8156 48.6607C85.9108 49.0429 84.9125 49.234 83.8205 49.234C82.7207 49.234 81.7146 49.0429 80.802 48.6607C79.8973 48.2707 79.1095 47.713 78.4387 46.9877C77.7758 46.2545 77.261 45.3731 76.8944 44.3436C76.5356 43.3062 76.3562 42.1363 76.3562 40.8337V40.1435C76.3562 38.8409 76.5356 37.671 76.8944 36.6336C77.261 35.5962 77.7719 34.7149 78.427 33.9895C79.09 33.2563 79.8739 32.6987 80.7786 32.3165C81.6912 31.9265 82.6974 31.7315 83.7971 31.7315C84.8891 31.7315 85.8874 31.9265 86.7922 32.3165C87.7047 32.6987 88.4925 33.2563 89.1555 33.9895C89.8185 34.7149 90.3332 35.5962 90.6998 36.6336C91.0664 37.671 91.2497 38.8409 91.2497 40.1435ZM87.0847 40.8337V40.1201C87.0847 39.2777 87.0106 38.5367 86.8624 37.8972C86.722 37.2498 86.5114 36.7077 86.2306 36.2709C85.9498 35.8341 85.6027 35.5066 85.1893 35.2882C84.7838 35.062 84.3197 34.9489 83.7971 34.9489C83.2511 34.9489 82.7753 35.062 82.3698 35.2882C81.9642 35.5066 81.6249 35.8341 81.3519 36.2709C81.0789 36.7077 80.8722 37.2498 80.7318 37.8972C80.5992 38.5367 80.5329 39.2777 80.5329 40.1201V40.8337C80.5329 41.6683 80.5992 42.4093 80.7318 43.0566C80.8722 43.6962 81.0789 44.2383 81.3519 44.6829C81.6327 45.1275 81.9759 45.4628 82.3815 45.689C82.7948 45.9152 83.2745 46.0283 83.8205 46.0283C84.3431 46.0283 84.8072 45.9152 85.2127 45.689C85.6183 45.4628 85.9576 45.1275 86.2306 44.6829C86.5114 44.2383 86.722 43.6962 86.8624 43.0566C87.0106 42.4093 87.0847 41.6683 87.0847 40.8337Z" fill="white"/>
<path d="M107.921 31.9655V49H103.826L97.8008 38.4002V49H93.6943V31.9655H97.8008L103.826 42.5653V31.9655H107.921Z" fill="white"/>
<path d="M122.556 45.8411V49H113.478V45.8411H122.556ZM114.94 31.9655V49H110.833V31.9655H114.94ZM121.386 38.7278V41.7814H113.478V38.7278H121.386ZM122.591 31.9655V35.1361H113.478V31.9655H122.591Z" fill="white"/>
<path d="M133.331 44.4723C133.331 44.2071 133.292 43.9692 133.214 43.7586C133.136 43.5402 132.992 43.3374 132.781 43.1502C132.571 42.963 132.266 42.7758 131.869 42.5887C131.479 42.3937 130.964 42.1909 130.324 41.9803C129.575 41.7307 128.854 41.4499 128.16 41.1379C127.466 40.8181 126.846 40.4476 126.3 40.0265C125.754 39.5975 125.321 39.0983 125.001 38.5289C124.681 37.9518 124.521 37.281 124.521 36.5166C124.521 35.7834 124.685 35.1244 125.013 34.5394C125.34 33.9466 125.796 33.4435 126.381 33.0302C126.974 32.609 127.668 32.2892 128.464 32.0708C129.26 31.8446 130.129 31.7315 131.073 31.7315C132.321 31.7315 133.421 31.9499 134.372 32.3867C135.332 32.8157 136.08 33.4279 136.619 34.2235C137.165 35.0113 137.438 35.9433 137.438 37.0197H133.354C133.354 36.5907 133.265 36.2124 133.085 35.8848C132.914 35.5573 132.652 35.2999 132.301 35.1127C131.95 34.9255 131.51 34.8319 130.979 34.8319C130.465 34.8319 130.032 34.9099 129.681 35.0659C129.33 35.2219 129.065 35.4325 128.885 35.6976C128.706 35.955 128.616 36.2397 128.616 36.5517C128.616 36.8091 128.686 37.0431 128.827 37.2537C128.975 37.4565 129.182 37.6476 129.447 37.827C129.72 38.0064 130.047 38.1779 130.429 38.3417C130.819 38.5055 131.256 38.6654 131.74 38.8214C132.645 39.11 133.448 39.4337 134.15 39.7925C134.86 40.1435 135.456 40.5451 135.94 40.9975C136.431 41.4421 136.802 41.9491 137.051 42.5185C137.309 43.0878 137.438 43.7313 137.438 44.4489C137.438 45.2132 137.289 45.8918 136.993 46.4846C136.697 47.0774 136.271 47.5804 135.718 47.9938C135.164 48.3994 134.501 48.7075 133.729 48.9181C132.957 49.1287 132.095 49.234 131.143 49.234C130.27 49.234 129.408 49.1248 128.558 48.9064C127.715 48.6802 126.951 48.337 126.264 47.8768C125.578 47.4089 125.028 46.8122 124.615 46.0868C124.209 45.3536 124.006 44.484 124.006 43.4778H128.125C128.125 43.977 128.191 44.3982 128.324 44.7414C128.456 45.0846 128.651 45.3614 128.909 45.572C129.166 45.7748 129.482 45.923 129.856 46.0166C130.231 46.1024 130.66 46.1453 131.143 46.1453C131.666 46.1453 132.087 46.0712 132.407 45.923C132.726 45.767 132.96 45.5642 133.109 45.3146C133.257 45.0573 133.331 44.7765 133.331 44.4723Z" fill="white"/>
<path d="M144.234 31.9655V49H140.139V31.9655H144.234Z" fill="white"/>
<path d="M154.869 35.5456L150.715 49H146.304L152.564 31.9655H155.36L154.869 35.5456ZM158.308 49L154.143 35.5456L153.605 31.9655H156.436L162.731 49H158.308ZM158.144 42.6472V45.8177H149.405V42.6472H158.144Z" fill="white"/>
</svg>
