<svg width="22" height="21" viewBox="0 0 22 21" fill="none" xmlns="http://www.w3.org/2000/svg">
<path d="M17.3185 14.4654H16.2796L15.9114 14.1103C17.2001 12.6112 17.976 10.665 17.976 8.54774C17.976 3.82676 14.1492 0 9.42823 0C4.70725 0 0.880493 3.82676 0.880493 8.54774C0.880493 13.2687 4.70725 17.0955 9.42823 17.0955C11.5454 17.0955 13.4917 16.3196 14.9908 15.0309L15.3459 15.3991V16.438L21.9211 23L23.8805 21.0406L17.3185 14.4654V14.4654ZM9.42823 14.4654C6.15379 14.4654 3.51057 11.8222 3.51057 8.54774C3.51057 5.2733 6.15379 2.63007 9.42823 2.63007C12.7027 2.63007 15.3459 5.2733 15.3459 8.54774C15.3459 11.8222 12.7027 14.4654 9.42823 14.4654Z" fill="white"/>
</svg>
