<svg width="162" height="52" viewBox="0 0 162 52" fill="none" xmlns="http://www.w3.org/2000/svg">
<g clip-path="url(#clip0_12_353)">
<path d="M26.25 15.9393V7.97101C26.25 7.09091 25.5365 6.37735 24.6562 6.37735H23.0625V1.59635C23.0625 0.716248 22.349 0.00268395 21.4688 0.00268395C19.2124 0.00268395 15.7569 -0.170229 11.7007 2.25971C9.17915 1.5092 7.39584 1.59635 5.53125 1.59635C4.651 1.59635 3.9375 2.30991 3.9375 3.19002V6.37735H2.34375C1.4635 6.37735 0.75 7.09091 0.75 7.97101V15.9393C0.75 22.4297 5.62538 27.8026 11.9062 28.5893V49.4063C11.9062 50.2864 12.6198 51 13.5 51C14.3802 51 15.0938 50.2864 15.0938 49.4063V43.8285H17.4844C22.3177 43.8285 26.25 39.8964 26.25 35.0633V32.6728C26.25 31.7927 25.5365 31.0792 24.6562 31.0792H20.6719C18.5547 31.0792 16.6104 31.8337 15.0938 33.0879V28.5885C21.3653 27.8119 26.25 22.4657 26.25 15.9393V15.9393ZM23.0625 15.9393C23.0625 18.7756 21.8081 21.3372 19.8256 23.0935C19.8569 22.8378 19.875 22.5781 19.875 22.314C19.875 18.2781 18.3661 14.5886 15.8839 11.7778C17.9883 10.3419 20.4834 9.56468 23.0625 9.56468V15.9393ZM19.875 3.19002V6.69887C19.5805 6.75883 19.288 6.82726 18.9979 6.90366C17.964 5.74635 16.7848 4.76037 15.4974 3.96364C16.889 3.45486 18.3663 3.19002 19.875 3.19002V3.19002ZM7.125 4.78368C10.2913 4.78368 13.3661 5.93979 15.7574 8.14871C14.9682 8.55599 14.2115 9.0308 13.4953 9.56916C11.6423 8.1761 9.47708 7.17707 7.125 6.69777V4.78368ZM3.9375 15.9393V9.56468C10.9678 9.56468 16.6875 15.2839 16.6875 22.314C16.6875 24.0949 15.2168 25.5461 13.4162 25.4998C7.81719 25.3616 3.9375 20.9135 3.9375 15.9393ZM20.6719 34.2665H23.0625V35.0633C23.0625 38.1389 20.5602 40.6412 17.4844 40.6412H15.0938V39.8443C15.0938 36.7688 17.5961 34.2665 20.6719 34.2665Z" fill="white"/>
</g>
<path d="M47.0216 25.8411V29H37.9427V25.8411H47.0216ZM39.4052 11.9655V29H35.2986V11.9655H39.4052ZM45.8516 18.7278V21.7814H37.9427V18.7278H45.8516ZM47.0566 11.9655V15.1361H37.9427V11.9655H47.0566ZM52.5899 11.9655L55.3744 17.6281L58.1589 11.9655H62.8387L58.0887 20.4126L62.9674 29H58.2408L55.3744 23.2321L52.508 29H47.7697L52.6601 20.4126L47.8984 11.9655H52.5899ZM71.4372 23.2204H67.202V20.0499H71.4372C72.0144 20.0499 72.4823 19.9524 72.8411 19.7574C73.1999 19.5624 73.4612 19.2933 73.625 18.9501C73.7966 18.5991 73.8824 18.2053 73.8824 17.7685C73.8824 17.3005 73.7966 16.8676 73.625 16.4698C73.4612 16.072 73.1999 15.7523 72.8411 15.5105C72.4823 15.2609 72.0144 15.1361 71.4372 15.1361H68.7463V29H64.6398V11.9655H71.4372C72.8021 11.9655 73.976 12.2151 74.9587 12.7143C75.9493 13.2135 76.7098 13.8998 77.2401 14.7734C77.7705 15.6392 78.0357 16.6297 78.0357 17.7451C78.0357 18.8448 77.7705 19.8042 77.2401 20.6232C76.7098 21.4421 75.9493 22.0817 74.9587 22.5419C73.976 22.9943 72.8021 23.2204 71.4372 23.2204ZM91.8171 25.8411V29H83.2063V25.8411H91.8171ZM84.6687 11.9655V29H80.5622V11.9655H84.6687ZM107.529 20.1435V20.8337C107.529 22.1363 107.346 23.3062 106.979 24.3436C106.62 25.3732 106.109 26.2545 105.446 26.9877C104.783 27.7131 104 28.2707 103.095 28.6607C102.19 29.0429 101.192 29.234 100.1 29.234C99 29.234 97.9938 29.0429 97.0813 28.6607C96.1765 28.2707 95.3888 27.7131 94.718 26.9877C94.055 26.2545 93.5402 25.3732 93.1736 24.3436C92.8149 23.3062 92.6355 22.1363 92.6355 20.8337V20.1435C92.6355 18.8409 92.8149 17.671 93.1736 16.6336C93.5402 15.5963 94.0511 14.7149 94.7063 13.9895C95.3693 13.2564 96.1531 12.6987 97.0579 12.3165C97.9704 11.9265 98.9766 11.7315 100.076 11.7315C101.168 11.7315 102.167 11.9265 103.071 12.3165C103.984 12.6987 104.772 13.2564 105.435 13.9895C106.098 14.7149 106.612 15.5963 106.979 16.6336C107.346 17.671 107.529 18.8409 107.529 20.1435ZM103.364 20.8337V20.1201C103.364 19.2777 103.29 18.5367 103.142 17.8972C103.001 17.2498 102.791 16.7077 102.51 16.2709C102.229 15.8342 101.882 15.5066 101.469 15.2882C101.063 15.062 100.599 14.9489 100.076 14.9489C99.5304 14.9489 99.0546 15.062 98.649 15.2882C98.2434 15.5066 97.9041 15.8342 97.6312 16.2709C97.3582 16.7077 97.1515 17.2498 97.0111 17.8972C96.8785 18.5367 96.8122 19.2777 96.8122 20.1201V20.8337C96.8122 21.6683 96.8785 22.4093 97.0111 23.0567C97.1515 23.6962 97.3582 24.2383 97.6312 24.6829C97.9119 25.1275 98.2551 25.4628 98.6607 25.689C99.0741 25.9152 99.5538 26.0283 100.1 26.0283C100.622 26.0283 101.086 25.9152 101.492 25.689C101.898 25.4628 102.237 25.1275 102.51 24.6829C102.791 24.2383 103.001 23.6962 103.142 23.0567C103.29 22.4093 103.364 21.6683 103.364 20.8337ZM109.974 11.9655H116.677C117.988 11.9655 119.126 12.1605 120.094 12.5505C121.061 12.9405 121.806 13.5177 122.328 14.282C122.859 15.0464 123.124 15.9901 123.124 17.1133C123.124 18.0883 122.972 18.9033 122.667 19.5585C122.363 20.2137 121.938 20.7557 121.392 21.1847C120.854 21.6059 120.226 21.953 119.509 22.226L118.163 22.9865H112.536L112.512 19.8159H116.677C117.2 19.8159 117.633 19.7223 117.976 19.5351C118.319 19.3479 118.577 19.0827 118.748 18.7395C118.928 18.3885 119.017 17.9713 119.017 17.4877C119.017 16.9963 118.928 16.5751 118.748 16.2241C118.569 15.8732 118.304 15.6041 117.953 15.4169C117.609 15.2297 117.184 15.1361 116.677 15.1361H114.08V29H109.974V11.9655ZM119.298 29L115.531 21.4655L119.883 21.4421L123.697 28.8245V29H119.298ZM137.642 25.8411V29H128.563V25.8411H137.642ZM130.026 11.9655V29H125.919V11.9655H130.026ZM136.472 18.7278V21.7814H128.563V18.7278H136.472ZM137.677 11.9655V15.1361H128.563V11.9655H137.677Z" fill="#DD2242"/>
<path d="M39.6626 33.9655V51H35.5677V33.9655H39.6626ZM57.0942 33.9655V51H52.9994L46.9741 40.4002V51H42.8676V33.9655H46.9741L52.9994 44.5653V33.9655H57.0942ZM65.5406 51H61.7617L61.7851 47.8411H65.5406C66.3206 47.8411 66.9797 47.6539 67.5179 47.2796C68.0638 46.9052 68.4772 46.3475 68.758 45.6065C69.0466 44.8578 69.1909 43.9374 69.1909 42.8454V42.1084C69.1909 41.2894 69.109 40.5718 68.9452 39.9557C68.7892 39.3317 68.5552 38.813 68.2432 38.3996C67.9312 37.9784 67.5413 37.6626 67.0733 37.452C66.6131 37.2414 66.0827 37.1361 65.4821 37.1361H61.6915V33.9655H65.4821C66.6365 33.9655 67.6933 34.1644 68.6527 34.5622C69.6199 34.9522 70.4544 35.5138 71.1564 36.2469C71.8662 36.9723 72.4122 37.8342 72.7943 38.8325C73.1843 39.8231 73.3793 40.9228 73.3793 42.1318V42.8454C73.3793 44.0466 73.1843 45.1463 72.7943 46.1447C72.4122 47.1431 71.8701 48.0049 71.1681 48.7303C70.4661 49.4557 69.6355 50.0172 68.6761 50.415C67.7245 50.805 66.6794 51 65.5406 51ZM64.1133 33.9655V51H60.0068V33.9655H64.1133ZM90.2494 42.1435V42.8337C90.2494 44.1363 90.0661 45.3062 89.6995 46.3436C89.3407 47.3732 88.8298 48.2545 88.1669 48.9877C87.5039 49.7131 86.72 50.2707 85.8153 50.6607C84.9105 51.0429 83.9122 51.234 82.8202 51.234C81.7204 51.234 80.7143 51.0429 79.8017 50.6607C78.897 50.2707 78.1092 49.7131 77.4384 48.9877C76.7755 48.2545 76.2607 47.3732 75.8941 46.3436C75.5353 45.3062 75.3559 44.1363 75.3559 42.8337V42.1435C75.3559 40.8409 75.5353 39.671 75.8941 38.6336C76.2607 37.5963 76.7716 36.7149 77.4267 35.9895C78.0897 35.2564 78.8736 34.6987 79.7783 34.3165C80.6909 33.9265 81.697 33.7315 82.7968 33.7315C83.8888 33.7315 84.8871 33.9265 85.7919 34.3165C86.7044 34.6987 87.4922 35.2564 88.1552 35.9895C88.8181 36.7149 89.3329 37.5963 89.6995 38.6336C90.0661 39.671 90.2494 40.8409 90.2494 42.1435ZM86.0844 42.8337V42.1201C86.0844 41.2777 86.0103 40.5367 85.8621 39.8972C85.7217 39.2498 85.5111 38.7077 85.2303 38.2709C84.9495 37.8342 84.6024 37.5066 84.189 37.2882C83.7835 37.062 83.3194 36.9489 82.7968 36.9489C82.2508 36.9489 81.775 37.062 81.3695 37.2882C80.9639 37.5066 80.6246 37.8342 80.3516 38.2709C80.0786 38.7077 79.8719 39.2498 79.7315 39.8972C79.5989 40.5367 79.5326 41.2777 79.5326 42.1201V42.8337C79.5326 43.6683 79.5989 44.4093 79.7315 45.0567C79.8719 45.6962 80.0786 46.2383 80.3516 46.6829C80.6324 47.1275 80.9756 47.4628 81.3812 47.689C81.7945 47.9152 82.2742 48.0283 82.8202 48.0283C83.3428 48.0283 83.8069 47.9152 84.2124 47.689C84.618 47.4628 84.9573 47.1275 85.2303 46.6829C85.5111 46.2383 85.7217 45.6962 85.8621 45.0567C86.0103 44.4093 86.0844 43.6683 86.0844 42.8337ZM106.921 33.9655V51H102.826L96.8005 40.4002V51H92.694V33.9655H96.8005L102.826 44.5653V33.9655H106.921ZM121.556 47.8411V51H112.477V47.8411H121.556ZM113.94 33.9655V51H109.833V33.9655H113.94ZM120.386 40.7278V43.7814H112.477V40.7278H120.386ZM121.591 33.9655V37.1361H112.477V33.9655H121.591ZM132.331 46.4723C132.331 46.2071 132.292 45.9692 132.214 45.7586C132.136 45.5402 131.991 45.3374 131.781 45.1502C131.57 44.9631 131.266 44.7759 130.868 44.5887C130.478 44.3937 129.963 44.1909 129.324 43.9803C128.575 43.7307 127.854 43.4499 127.159 43.1379C126.465 42.8181 125.845 42.4477 125.299 42.0265C124.753 41.5975 124.32 41.0983 124.001 40.5289C123.681 39.9518 123.521 39.281 123.521 38.5166C123.521 37.7835 123.685 37.1244 124.012 36.5394C124.34 35.9466 124.796 35.4436 125.381 35.0302C125.974 34.609 126.668 34.2892 127.464 34.0708C128.259 33.8446 129.129 33.7315 130.073 33.7315C131.321 33.7315 132.42 33.9499 133.372 34.3867C134.331 34.8157 135.08 35.428 135.618 36.2235C136.164 37.0113 136.437 37.9434 136.437 39.0197H132.354C132.354 38.5907 132.264 38.2124 132.085 37.8849C131.913 37.5573 131.652 37.2999 131.301 37.1127C130.95 36.9255 130.509 36.8319 129.979 36.8319C129.464 36.8319 129.031 36.9099 128.68 37.0659C128.329 37.2219 128.064 37.4325 127.885 37.6977C127.705 37.955 127.616 38.2397 127.616 38.5517C127.616 38.8091 127.686 39.0431 127.826 39.2537C127.975 39.4565 128.181 39.6476 128.446 39.827C128.719 40.0064 129.047 40.178 129.429 40.3417C129.819 40.5055 130.256 40.6654 130.74 40.8214C131.644 41.11 132.448 41.4337 133.15 41.7925C133.859 42.1435 134.456 42.5452 134.94 42.9975C135.431 43.4421 135.802 43.9491 136.051 44.5185C136.308 45.0878 136.437 45.7313 136.437 46.4489C136.437 47.2133 136.289 47.8918 135.993 48.4846C135.696 49.0774 135.271 49.5805 134.717 49.9938C134.164 50.3994 133.501 50.7075 132.728 50.9181C131.956 51.1287 131.094 51.234 130.143 51.234C129.269 51.234 128.407 51.1248 127.557 50.9064C126.715 50.6802 125.951 50.337 125.264 49.8768C124.578 49.4089 124.028 48.8122 123.615 48.0868C123.209 47.3537 123.006 46.484 123.006 45.4778H127.124C127.124 45.977 127.191 46.3982 127.323 46.7414C127.456 47.0846 127.651 47.3615 127.908 47.572C128.166 47.7748 128.482 47.923 128.856 48.0166C129.23 48.1024 129.659 48.1453 130.143 48.1453C130.665 48.1453 131.087 48.0712 131.406 47.923C131.726 47.767 131.96 47.5642 132.108 47.3147C132.257 47.0573 132.331 46.7765 132.331 46.4723ZM143.234 33.9655V51H139.139V33.9655H143.234ZM153.868 37.5456L149.715 51H145.304L151.563 33.9655H154.36L153.868 37.5456ZM157.308 51L153.143 37.5456L152.605 33.9655H155.436L161.73 51H157.308ZM157.144 44.6472V47.8177H148.405V44.6472H157.144Z" fill="white"/>
<defs>
<clipPath id="clip0_12_353">
<rect width="25.5" height="51" fill="white" transform="translate(0.75)"/>
</clipPath>
</defs>
</svg>
